<?xml version="1.0" encoding="utf-8"?>
<!-- Generator: Adobe Illustrator 21.1.0, SVG Export Plug-In . SVG Version: 6.00 Build 0)  -->
<svg version="1.1" id="Layer_1" xmlns="http://www.w3.org/2000/svg" xmlns:xlink="http://www.w3.org/1999/xlink" x="0px" y="0px"
	 viewBox="0 0 213 50" style="enable-background:new 0 0 213 50;" xml:space="preserve">
<style type="text/css">
	.st0{fill:#312F31;}
	.st1{fill:#B07728;}
	.st2{fill:#B6792E;}
</style>
<g>
	<path class="st0" d="M7,13v-0.8H2.1c-1.1,0-2,0.9-2,2V15H5C6.1,15,7,14.1,7,13z"/>
	<path class="st0" d="M38.7,11.1H38h-0.4c0,0,0,0,0,0c-1.7,0-3.4,0.7-4.6,1.9c-1.2,1.2-1.9,2.9-1.9,4.6c0,1.7,0.7,3.4,1.9,4.6
		l0.5,0.5c1.5,1.5,1.5,3.9,0,5.4L33,28.5l-4.4-3.2l1.3-1l0-11.5c0-2-0.8-3.8-2.1-5.2c-1.4-1.4-3.2-2.1-5.2-2.1h-7.3l0,0h-2.3
		c-0.4,0-0.7,0.5-0.4,0.9l1,1.4L9.1,9.4c-0.6,0.2-1,0.7-1,1.3v5c0,0.4,0.2,0.8,0.4,1.1l1.3,1.3c0.3,0.3,0.7,0.5,1.1,0.5H13l-0.3,0.3
		c-0.3,0.3-0.6,0.6-0.8,0.9H8.3l-0.1-0.2c-1.4-1.8-3.1-2.7-5.1-2.7l-2.9,0v3.7c0,0.6,0.2,1.2,0.6,1.6l2.5,3.2c-0.1,0-0.1,0-0.2,0H0
		v3.8c0,0.6,0.2,1.2,0.6,1.6L3.9,35c0.4,0.5,1,0.8,1.6,0.8h5.9c-0.2,0.5-0.3,1.1-0.3,1.7v2.2l1.9,1.5c0,0,0,0.1,0,0.1l-1.4,1.1H9.4
		c-2.2,0-4.1,1.8-4.1,4.1V50h11.1l8.2-9.1l2.2,1.4h-0.8c-2.2,0-4.1,1.8-4.1,4.1V50h9.6l6.2-5l0.1-0.1c0.5-0.5,0.8-1.2,0.8-2
		c0-0.7-0.3-1.4-0.8-1.9l-3.5-4.2V31l1-1c2.5-2.5,2.5-6.7,0-9.2l-0.5-0.5c-0.7-0.7-1.1-1.7-1.1-2.7c0-1,0.4-2,1.1-2.7
		c0.7-0.7,1.7-1.1,2.7-1.1c0,0,0,0,0,0H38v1.9c0,1,0.8,1.9,1.9,1.9h0.7v-4.5C40.6,11.9,39.8,11.1,38.7,11.1z M22.6,8.2
		c1.2,0,2.4,0.5,3.3,1.4c0.9,0.9,1.4,2,1.4,3.3l0,10.1l-6.7,5.1l-5-3.2l-0.7-0.4c-0.6-0.4-1-1-1.1-1.7c-0.1-0.7,0.2-1.4,0.8-1.9
		l1.2-1.1l3.8-3.3l0.1-0.1c0.4-0.4,0.6-0.9,0.6-1.4v-3.2c0-0.5-0.2-1-0.6-1.4l-2-2.2H22.6z M11.4,15.9l-0.6-0.6v-3.7l4.7-1.8l2,2.2
		v2.6l-1.4,1.2H11.4z M12.8,27.1l-1.3,1.2H8.3l-0.1-0.2c-0.3-0.4-0.6-0.7-0.9-1H12.8z M2.8,20.6l0-1h0.2c1.2,0,2.1,0.5,3,1.7L7,22.5
		h4c0,0.2,0,0.4,0,0.6c0,0.5,0.2,0.9,0.4,1.4H5.9L2.8,20.6z M15.3,47.3H8.1v-1c0-0.8,0.6-1.4,1.4-1.4h3l2.2-1.8l0.1-0.1
		c1.1-1.1,1.1-2.9,0-4l-1.1-0.8v-0.9c0-0.9,0.7-1.7,1.7-1.7l0.6,0h2.2v0l2.9,0l1.2,1V38c0,0.4,0.1,0.9,0.3,1.3L15.3,47.3z
		 M35.9,42.8L35.9,42.8C36,42.9,36,42.9,36,43c0,0,0,0,0,0.1l-5.4,4.3h-5.9v-1c0-0.8,0.6-1.4,1.4-1.4h3.5l0.4-0.4
		c0.5-0.5,0.8-1.2,0.7-1.8c0-0.7-0.4-1.3-0.9-1.8l-5-3.1v-2.4l-2.2-1.8c-0.5-0.4-1-0.6-1.6-0.6l-2.9,0v0H5.8l-3.1-4l0-1H3
		c1.2,0,2.1,0.5,3.1,1.7L7,31h5.6l3-2.8l5,3.2l5.6-4.3l5.3,3.9v6c0,0.7,0.3,1.3,0.8,1.7L35.9,42.8z"/>
	<path class="st0" d="M16.4,4.3h8.2c0.3,0,0.5-0.2,0.5-0.5V0.4c0-0.2-0.1-0.3-0.3-0.4c-0.2-0.1-0.3,0-0.5,0.1l-1.8,1.6l-1.7-1.6
		c-0.2-0.2-0.5-0.2-0.7,0l-1.8,1.5l-1.8-1.5C16.5,0,16.3,0,16.1,0.1c-0.2,0.1-0.3,0.2-0.3,0.4v3.4C15.9,4.1,16.1,4.3,16.4,4.3z"/>
</g>
<g id="Group_546-2_5_" transform="translate(155.000000, 10.000000)">
	<path id="Path_595-2_5_" class="st0" d="M-76.3,9.6h3.7l0.8,1.5c1.1-1.1,2.8-1.7,4.4-1.7c3.6,0,4.3,2.4,4.3,5.3v9.6h-4.5v-9.7
		c0-1.3-0.4-1.7-1.2-1.7c-1-0.1-2.1,0.3-2.8,1.1v10.1h-4.5L-76.3,9.6L-76.3,9.6z"/>
	<path id="Path_596-2_5_" class="st0" d="M-59.7,2.8h4.5v15.4c0,2,0.4,2.5,1.1,2.7c0,0,1.5,0.6,1.6,0.6v2.7H-56
		c-2.5,0-3.8-1.3-3.8-5.2L-59.7,2.8L-59.7,2.8z"/>
	<path id="Path_597-2_5_" class="st0" d="M-48.8,20.8c0-0.2,0-0.3,0.1-0.6c0.1-0.1,0.3-0.2,0.6-0.1h2.7c0.2,0,0.3,0,0.6,0.1
		c0.1,0.1,0.2,0.3,0.1,0.6v2.8c0,0.2-0.1,0.3-0.2,0.4c-0.1,0.1-0.3,0.2-0.4,0.2h-2.7c-0.2,0-0.3-0.1-0.4-0.2
		c-0.1-0.1-0.2-0.3-0.2-0.4V20.8z"/>
	<path id="Path_598-2_5_" class="st0" d="M-39.2,18.7c-1.2-0.8-1.6-2.6-1.6-4c0-3.5,1.8-5.2,5.2-5.2h9v2.6l-1.3,0.4
		c0.3,0.9,0.6,1.8,0.4,2.7c0,2.2-1,4.7-5.2,4.7h-3c-0.4,0-1.1,0-1.1,0.6c0,0.6,0.4,0.7,1.1,0.7h3.9c2.8,0,4.6,1.3,4.6,4.5v1.5
		c0,2.2-1.1,4.2-4.7,4.2h-4c-2.6,0-4.6-1.3-4.6-4.2v-1.7l1.3-1.1c-1.1-0.6-1.7-1.8-1.6-3C-40.8,20.2-40.2,19.1-39.2,18.7z
		 M-34.8,16.6h1.1c1.2,0,1.6-0.6,1.6-1.9s-0.6-1.7-1.6-1.7h-1.1c-1.3,0-1.5,0.8-1.5,1.7C-36.2,16-35.9,16.6-34.8,16.6z M-34.7,28.1
		h1.6c1.2,0,1.3-0.6,1.3-1.2v-0.9c0-0.7-0.3-1.1-1.2-1.1h-3.1v1.9C-36.1,28-35.6,28.1-34.7,28.1z"/>
	<path id="Path_599-2_5_" class="st0" d="M-17,9.5c5.1,0,6.7,1.8,6.7,7.6c0,5.4-1.6,7.2-6.7,7.2c-5.1,0-6.7-2-6.7-7.2
		C-23.8,11.2-22,9.5-17,9.5z M-17,20.9c1.9,0,2.2-0.2,2.2-3.7c0-3.7-0.2-4.2-2.2-4.2s-2.2,0.4-2.2,4.2C-19.3,20.4-18.8,20.9-17,20.9
		z"/>
	<path id="Path_600-2_5_" class="st0" d="M-6.7,2.7h4.5v7.6c1.2-0.6,2.7-0.9,4-0.9c3.9,0,4.7,2.7,4.7,7.5s-1.2,7.3-4.7,7.3
		c-1.5,0-2.9-0.6-4-1.6l-0.8,1.5h-3.8L-6.7,2.7L-6.7,2.7z M0.5,20.5c1,0,1.6-0.7,1.6-3.8c0-3.5-0.6-3.9-1.6-3.9
		c-0.9,0-1.8,0.1-2.7,0.4v6.5C-1.4,20.3-0.5,20.7,0.5,20.5z"/>
	<path id="Path_601-2_5_" class="st0" d="M9.9,20.8c0-0.2,0-0.3,0.1-0.6c0.1-0.1,0.3-0.2,0.6-0.1h2.7c0.2,0,0.3,0,0.6,0.1
		c0.1,0.1,0.2,0.3,0.1,0.6v2.8c0,0.2-0.1,0.3-0.2,0.4c-0.1,0.1-0.3,0.2-0.4,0.2h-2.7c-0.2,0-0.3-0.1-0.4-0.2
		c-0.1-0.1-0.2-0.3-0.2-0.4V20.8z"/>
	<path id="Path_602-2_5_" class="st0" d="M18.2,9.6h3.7l0.8,1.5c1.1-1.1,2.7-1.7,4.3-1.7c1.5-0.1,2.9,0.6,3.7,1.8
		c1.5-1.1,3.1-1.8,4.9-1.8c3.5,0,4.3,2.2,4.3,5.3v9.4h-4.5v-9.6c0-1.2-0.4-1.7-1.2-1.7c-1.1-0.1-2.1,0.2-2.9,1v10.2h-4.5v-9.6
		c0-1.2-0.4-1.7-1.3-1.7c-1-0.1-2.1,0.3-2.8,1.1v10.1h-4.5L18.2,9.6L18.2,9.6z"/>
	<polygon id="Path_603-2_5_" class="st0" points="47.7,16.8 42.8,9.6 48.1,9.6 50.4,13.6 52.6,9.6 58,9.6 53.1,16.9 57.9,24.1 
		52.7,24.1 50.5,20.3 48.2,24.1 42.9,24.1 	"/>
</g>
<polygon class="st0" points="58.4,0 58.4,25 58.4,50 60.9,50 60.9,25 60.9,0 "/>
</svg>
